<?xml version="1.0" encoding="UTF-8"?>
<svg id="Layer_1" data-name="Layer 1" xmlns="http://www.w3.org/2000/svg" viewBox="0 0 1351.32 458.54">
  <defs>
    <style>
      .cls-1 {
        fill: #fff;
      }
    </style>
  </defs>
  <rect width="1351.32" height="458.54"/>
  <g>
    <path class="cls-1" d="M283.59,221.92l-33.15-46.9c-.54-.76-1.41-1.21-2.34-1.21h-17.97c-1.58,0-2.86,1.28-2.86,2.86v68.62c0,1.58,1.28,2.86,2.86,2.86h14.34c1.58,0,2.86-1.28,2.86-2.86v-30.91c0-2.79,3.59-3.93,5.2-1.65l24.12,34.12c.53.75,1.39,1.2,2.3,1.21l13.33.15c.92.01,1.78-.42,2.33-1.16l26.62-35.91c1.64-2.21,5.16-1.05,5.16,1.7v73.74c0,1.58,1.28,2.86,2.86,2.86h14.34c1.58,0,2.86-1.28,2.86-2.86v-109.91c0-1.58-1.28-2.86-2.86-2.86h-18.21c-.91,0-1.76.43-2.3,1.16l-34.85,47c-1.16,1.56-3.51,1.54-4.63-.05Z"/>
    <path class="cls-1" d="M549.89,272.58c-21.76-.98-39.65-18.4-41.21-40.13-1.82-25.34,18.28-46.53,43.24-46.53,6.66,0,13.23,1.53,19.15,4.45,1.35.67,2.98.17,3.73-1.14l7.14-12.46c.82-1.43.26-3.24-1.2-3.99-8.88-4.53-18.78-6.91-28.82-6.91-35.03,0-63.51,28.55-63.41,63.6.1,34.45,28.33,62.89,62.78,63.22,12.58.12,24.66-3.39,35.1-10.17,1.38-.89,1.74-2.76.78-4.09l-8.38-11.66c-.88-1.23-2.56-1.55-3.84-.75-7.45,4.69-16.1,6.97-25.06,6.57Z"/>
    <rect class="cls-1" x="613.12" y="173.81" width="20.06" height="115.64" rx="2.86" ry="2.86"/>
    <path class="cls-1" d="M685.78,228.19h-33.81c-1.58,0-2.86,1.28-2.86,2.86v14.34c0,1.58,1.28,2.86,2.86,2.86h45.51c.76,0,1.49-.3,2.02-.84l8.35-8.35c.54-.54.84-1.26.84-2.02v-60.36c0-1.58-1.28-2.86-2.86-2.86h-14.34c-1.58,0-2.86,1.28-2.86,2.86v48.65c0,1.58-1.28,2.86-2.86,2.86Z"/>
    <rect class="cls-1" x="735.84" y="173.81" width="20.06" height="115.64" rx="2.86" ry="2.86"/>
    <path class="cls-1" d="M885.19,173.81h-14.34c-1.58,0-2.86,1.28-2.86,2.86v73.44c0,2.78-3.56,3.93-5.18,1.67l-55.35-76.78c-.54-.75-1.4-1.19-2.32-1.19h-18.07c-1.58,0-2.86,1.28-2.86,2.86v68.59c0,1.58,1.28,2.86,2.86,2.86h14.34c1.58,0,2.86-1.28,2.86-2.86v-31.52c0-2.78,3.56-3.93,5.18-1.67l54.92,76.19c.54.75,1.4,1.19,2.32,1.19h18.49c1.58,0,2.86-1.28,2.86-2.86v-109.91c0-1.58-1.28-2.86-2.86-2.86Z"/>
    <path class="cls-1" d="M1040.27,250.11v-73.44c0-1.58-1.28-2.86-2.86-2.86h-14.34c-1.58,0-2.86,1.28-2.86,2.86v109.91c0,1.58,1.28,2.86,2.86,2.86h18.49c.92,0,1.78-.44,2.32-1.19l54.92-76.19c1.62-2.25,5.18-1.1,5.18,1.67v31.55c0,1.58,1.28,2.86,2.86,2.86h14.34c1.58,0,2.86-1.28,2.86-2.86v-68.62c0-1.58-1.28-2.86-2.86-2.86h-18.07c-.92,0-1.78.44-2.32,1.19l-55.35,76.78c-1.62,2.25-5.18,1.1-5.18-1.67Z"/>
    <path class="cls-1" d="M914.01,176.67v52.28c0,.76.3,1.49.84,2.02l8.35,8.35c.54.54,1.26.84,2.02.84h57.31c1.58,0,2.86-1.28,2.86-2.86v-14.34c0-1.58-1.28-2.86-2.86-2.86h-45.61c-1.58,0-2.86-1.28-2.86-2.86v-20.52c0-1.58,1.28-2.86,2.86-2.86h52.69c1.58,0,2.86-1.28,2.86-2.86v-14.34c0-1.58-1.28-2.86-2.86-2.86h-72.75c-1.58,0-2.86,1.28-2.86,2.86Z"/>
    <rect class="cls-1" x="924.04" y="269.39" width="68.44" height="20.06" rx="2.86" ry="2.86"/>
    <path class="cls-1" d="M442.75,174.74l-71.92,93.69c-.38.5-.59,1.11-.59,1.74v16.41c0,1.58,1.28,2.86,2.86,2.86h53.87c1.58,0,2.86-1.28,2.86-2.86v-14.52c0-1.58-1.28-2.86-2.86-2.86h-24.75c-2.36,0-3.71-2.7-2.29-4.58l45.63-60.58v.14s.01,41.18.01,41.18c0,1.58,1.28,2.86,2.86,2.86h14.34c1.58,0,2.86-1.28,2.86-2.86v-68.88c0-1.58-1.28-2.86-2.86-2.86h-17.75c-.89,0-1.73.41-2.27,1.12Z"/>
  </g>
</svg>